<svg width="18" height="21" viewBox="0 0 18 21" fill="none" xmlns="http://www.w3.org/2000/svg">
<path fill-rule="evenodd" clip-rule="evenodd" d="M9.00025 0C6.28938 0 4.09179 1.9058 4.09179 4.25674V4.54062H3.09186C1.89095 4.54062 1.63616 4.54167 1.63616 4.54167L0.171435 18.9411C0.132285 19.4312 0 20.9995 0 20.9995C0 20.9995 1.41454 21 2.0813 21H15.9197C16.5864 21 18 20.9995 18 20.9995C18 20.9995 17.8686 19.4312 17.8296 18.9411L16.3615 4.54083C16.3615 4.54083 16.11 4.54062 14.9091 4.54062H13.9088V4.25674C13.9088 1.9058 11.7111 0 9.00025 0ZM11.9453 6.24331V7.66213H13.9088V6.24331H14.809C14.8296 6.27567 14.8539 6.33095 14.8602 6.41025L15.8709 19.0588C15.8796 19.1685 15.8489 19.2512 15.8196 19.2973H2.18138C2.15214 19.2512 2.12136 19.1685 2.13014 19.0588L3.14069 6.41024C3.14703 6.3309 3.17136 6.27567 3.19193 6.24331H4.09179V7.66213H6.05517V6.24331H11.9453ZM11.9453 4.54062V4.25674C11.9453 2.84618 10.6267 1.70269 9.00025 1.70269C7.37373 1.70269 6.05517 2.84618 6.05517 4.25674V4.54062H11.9453Z" fill="#B0B0B0"/>
</svg>
